<svg version="1.0" xmlns="http://www.w3.org/2000/svg" width="933.333" height="933.333" viewBox="0 0 700 700"><path d="M273.5 67.6c-47.2 8.5-85.6 46.8-93.5 93.4-1.4 8.4-1.8 27.8-.8 38.5 2.1 20.4 10 49 21.1 76.5 1.9 4.6 3.3 8.9 3 9.6-.2.6-4.1 2.8-8.6 4.9-30.1 13.6-43.3 21.9-54.8 34-6 6.4-7.7 8.9-11.4 16.7-6.3 13.4-7.8 27.8-5 47.3 17.5 119.3 41.7 196.2 71.1 225.1 7 7 14.6 10.5 32.1 14.8 18 4.5 28 5.6 48.8 5.1 27.1-.6 47.7-4.5 79.5-15.2 27.2-9 49.8-19.1 100-44.6 19.5-10 47.4-24 62-31.3 14.6-7.3 30.6-15.9 35.5-19.2 14.8-9.8 22-19.2 24.5-31.8.9-4.6.6-28.5-.3-32.9-.3-1.1-.8-4.3-1.1-7-.4-2.8-1.1-7.7-1.6-11s-1.2-8-1.5-10.5c-.8-6.2-6.3-43.1-6.9-46.6-.3-1.6-1.4-8.5-2.6-15.4-13.7-82.3-33-135.6-53.6-147.6-4.6-2.7-8.4-3.8-16.9-5-2.7-.3-5.8-.8-6.7-.9-9.9-1.9-34.7-2.3-45.8-.7-17.5 2.5-18.5 1.6-27.8-24.3-5.6-15.6-17.4-42.3-24.7-56-24.4-45.7-52.5-65.8-93.5-67-8-.2-15.4.2-20.5 1.1zm27.5 65.9c6.5 3.3 17.1 13.9 23.2 23 6.3 9.5 14.1 25.8 29.3 61 6.6 15.4 7 13.8-3.7 15.9-12.9 2.4-25.9 6.5-50.3 15.8-30 11.5-37.5 14-38 12.5-7.6-23.7-9.7-30.5-11.4-37.2-5.7-22.7-7.4-42.8-4.6-53.5 4.9-18.9 18.1-34.7 33-39.4 6.9-2.2 15.9-1.4 22.5 1.9z"/></svg>