<?xml version="1.0" standalone="no"?>
<!DOCTYPE svg PUBLIC "-//W3C//DTD SVG 20010904//EN"
 "http://www.w3.org/TR/2001/REC-SVG-20010904/DTD/svg10.dtd">
<svg version="1.0" xmlns="http://www.w3.org/2000/svg"
 width="700.000000pt" height="700.000000pt" viewBox="0 0 700.000000 700.000000"
 preserveAspectRatio="xMidYMid meet">
<metadata>
Created by potrace 1.14, written by Peter Selinger 2001-2017
</metadata>
<g transform="translate(0.000000,700.000000) scale(0.100000,-0.100000)"
fill="#000000" stroke="none">
<path d="M2735 6324 c-472 -85 -856 -468 -935 -934 -14 -84 -18 -278 -8 -385
21 -204 100 -490 211 -765 19 -46 33 -89 30 -96 -2 -6 -41 -28 -86 -49 -301
-136 -433 -219 -548 -340 -60 -64 -77 -89 -114 -167 -63 -134 -78 -278 -50
-473 175 -1193 417 -1962 711 -2251 70 -70 146 -105 321 -148 180 -45 280 -56
488 -51 271 6 477 45 795 152 272 90 498 191 1000 446 195 100 474 240 620
313 146 73 306 159 355 192 148 98 220 192 245 318 9 46 6 285 -3 329 -3 11
-8 43 -11 70 -4 28 -11 77 -16 110 -5 33 -12 80 -15 105 -8 62 -63 431 -69
466 -3 16 -14 85 -26 154 -137 823 -330 1356 -536 1476 -46 27 -84 38 -169 50
-27 3 -58 8 -67 9 -99 19 -347 23 -458 7 -175 -25 -185 -16 -278 243 -56 156
-174 423 -247 560 -244 457 -525 658 -935 670 -80 2 -154 -2 -205 -11z m275
-659 c65 -33 171 -139 232 -230 63 -95 141 -258 293 -610 66 -154 70 -138 -37
-159 -129 -24 -259 -65 -503 -158 -300 -115 -375 -140 -380 -125 -76 237 -97
305 -114 372 -57 227 -74 428 -46 535 49 189 181 347 330 394 69 22 159 14
225 -19z"/>
</g>
</svg>
